<svg width="818" height="869" viewBox="0 0 818 869" fill="none" xmlns="http://www.w3.org/2000/svg">
<path d="M772.46 334.456C764.18 388.325 755.9 400.756 755.9 454.625C755.9 487.775 818 516.781 818 516.781V558.219C818 558.219 755.9 587.225 755.9 620.375C755.9 674.244 764.18 686.675 772.46 740.544C784.88 827.562 739.34 869 697.94 869C656.54 869 611 869 611 869V786.125C611 786.125 685.52 794.412 685.52 744.688C685.52 707.394 677.24 707.394 668.96 624.519C664.82 587.225 689.66 558.219 714.5 537.5C689.66 516.781 664.82 491.919 668.96 454.625C677.24 371.75 685.52 371.75 685.52 334.456C685.52 284.731 611 288.875 611 288.875V206C611 206 652.4 206 697.94 206C743.48 206 784.88 247.438 772.46 334.456Z" fill="#372B3D"/>
<path d="M45.54 334.456C53.82 388.325 62.1 400.756 62.1 454.625C62.1 487.775 0 516.781 0 516.781V558.219C0 558.219 62.1 587.225 62.1 620.375C62.1 674.244 53.82 686.675 45.54 740.544C33.12 827.562 78.66 869 120.06 869C161.46 869 207 869 207 869V786.125C207 786.125 132.48 794.412 132.48 744.688C132.48 707.394 140.76 707.394 149.04 624.519C153.18 587.225 128.34 558.219 103.5 537.5C128.34 516.781 153.18 491.919 149.04 454.625C136.62 371.75 132.48 371.75 132.48 334.456C132.48 284.731 207 288.875 207 288.875V206C207 206 165.6 206 120.06 206C74.52 206 33.12 247.438 45.54 334.456Z" fill="#372B3D"/>
<path d="M459.52 0H358.429C316.291 0 282 34.175 282 76.1702V617.334L410.452 869L536 617.181V76.1702C535.949 34.175 501.658 0 459.52 0ZM358.429 50.7801H459.52C473.532 50.7801 484.996 62.2056 484.996 76.1702V127.915H332.953V76.1702C332.953 62.2056 344.366 50.7801 358.429 50.7801ZM387.472 711.988L339.882 618.806H478.219L431.801 711.988H387.472ZM332.953 568.077V281.83H484.996V568.077H332.953ZM332.953 231.049V178.695H484.996V231.049H332.953Z" fill="#E83C91"/>
</svg>
