<svg width="1798" height="476" viewBox="0 0 1798 476" fill="none" xmlns="http://www.w3.org/2000/svg">
<path d="M409.838 177.45C405.445 206.031 401.052 212.626 401.052 241.207C401.052 258.795 434 274.185 434 274.185V296.17C434 296.17 401.052 311.559 401.052 329.147C401.052 357.728 405.445 364.324 409.838 392.905C416.428 439.073 392.266 461.059 370.301 461.059C348.336 461.059 324.174 461.059 324.174 461.059V417.088C324.174 417.088 363.711 421.485 363.711 395.103C363.711 375.316 359.318 375.316 354.925 331.346C352.729 311.559 365.908 296.17 379.087 285.177C365.908 274.185 352.729 260.993 354.925 241.207C359.318 197.236 363.711 197.236 363.711 177.45C363.711 151.068 324.174 153.266 324.174 153.266V109.296C324.174 109.296 346.139 109.296 370.301 109.296C394.463 109.296 416.428 131.281 409.838 177.45Z" fill="#372B3D"/>
<path d="M24.1618 177.45C28.5549 206.031 32.9479 212.626 32.9479 241.207C32.9479 258.795 0 274.185 0 274.185V296.17C0 296.17 32.9479 311.559 32.9479 329.147C32.9479 357.728 28.5549 364.324 24.1618 392.904C17.5722 439.073 41.734 461.059 63.6993 461.059C85.6646 461.059 109.826 461.059 109.826 461.059V417.088C109.826 417.088 70.2889 421.485 70.2889 395.103C70.2889 375.316 74.6819 375.316 79.075 331.346C81.2715 311.559 68.0924 296.17 54.9132 285.177C68.0924 274.185 81.2715 260.993 79.075 241.207C72.4854 197.236 70.2889 197.236 70.2889 177.45C70.2889 151.068 109.826 153.266 109.826 153.266V109.296C109.826 109.296 87.8611 109.296 63.6993 109.296C39.5375 109.296 17.5722 131.281 24.1618 177.45Z" fill="#372B3D"/>
<path d="M243.804 0H190.169C167.812 0 149.619 18.132 149.619 40.413V327.534L217.771 461.059L284.381 327.453V40.413C284.354 18.132 266.161 0 243.804 0ZM190.169 26.942H243.804C251.238 26.942 257.321 33.004 257.321 40.413V67.8669H176.652V40.413C176.652 33.004 182.708 26.942 190.169 26.942ZM205.578 377.754L180.329 328.315H253.725L229.098 377.754H205.578ZM176.652 301.4V149.528H257.321V301.4H176.652ZM176.652 122.586V94.8089H257.321V122.586H176.652Z" fill="#E83C91"/>
<path d="M555.77 386C552.097 386 548.907 384.647 546.2 381.94C543.687 379.04 542.43 375.463 542.43 371.21V241.87C542.43 221.763 547.843 206.393 558.67 195.76C569.69 185.127 585.543 179.81 606.23 179.81C660.363 179.81 687.43 214.9 687.43 285.08C687.43 319.3 680.663 344.723 667.13 361.35C653.597 377.783 632.813 386 604.78 386H555.77ZM584.19 351.78H604.78C619.087 351.78 629.43 346.27 635.81 335.25C642.383 324.037 645.67 306.057 645.67 281.31C645.67 257.723 642.673 241 636.68 231.14C630.88 221.087 620.923 216.06 606.81 216.06C591.73 216.06 584.19 221.57 584.19 232.59V351.78ZM737.156 388.32C723.236 388.32 716.276 381.747 716.276 368.6V258.69C716.276 245.35 723.236 238.68 737.156 238.68C744.116 238.68 749.143 240.227 752.236 243.32C755.329 246.22 756.876 251.053 756.876 257.82C760.356 251.44 765.286 246.703 771.666 243.61C778.239 240.323 785.876 238.68 794.576 238.68C811.203 238.68 819.516 245.93 819.516 260.43C819.516 265.843 817.486 269.903 813.426 272.61C809.366 275.317 802.696 276.67 793.416 276.67C784.329 276.67 777.176 277.54 771.956 279.28C766.736 280.827 763.063 283.823 760.936 288.27C759.003 292.523 758.036 298.71 758.036 306.83V368.6C758.036 381.747 751.076 388.32 737.156 388.32ZM880.051 388.32C860.718 388.32 845.638 383.873 834.811 374.98C823.985 365.893 818.571 354.197 818.571 339.89C818.571 323.07 825.628 310.89 839.741 303.35C854.048 295.81 874.928 293.2 902.381 295.52C901.028 286.627 898.225 280.633 893.971 277.54C889.718 274.253 884.595 272.61 878.601 272.61C873.768 272.61 869.708 272.9 866.421 273.48C863.328 273.867 860.428 274.35 857.721 274.93C855.015 275.51 851.728 275.8 847.861 275.8C842.641 275.8 838.485 274.93 835.391 273.19C832.298 271.257 830.751 267.487 830.751 261.88C830.751 253.953 834.135 248.153 840.901 244.48C847.861 240.613 858.785 238.68 873.671 238.68C897.258 238.68 914.755 245.447 926.161 258.98C937.568 272.32 943.271 290.203 943.271 312.63C943.271 338.537 938.535 357.677 929.061 370.05C919.781 382.23 903.445 388.32 880.051 388.32ZM860.331 339.89C860.331 350.91 867.775 356.42 882.661 356.42C887.495 356.42 891.265 355.55 893.971 353.81C896.678 352.07 898.611 348.59 899.771 343.37C901.125 338.15 902.091 330.32 902.671 319.88C901.705 320.847 900.448 321.523 898.901 321.91C897.355 322.297 895.808 322.49 894.261 322.49C881.501 322.49 872.608 323.747 867.581 326.26C862.748 328.58 860.331 333.123 860.331 339.89ZM1021.36 388.32C1013.24 388.32 1006.86 386 1002.22 381.36C997.576 376.72 993.323 368.89 989.456 357.87L960.456 270C958.909 264.78 958.136 261.01 958.136 258.69C958.136 253.083 960.166 248.25 964.226 244.19C968.479 239.937 973.699 237.81 979.886 237.81C984.719 237.81 988.779 238.97 992.066 241.29C995.546 243.61 997.866 246.8 999.026 250.86L1026.58 342.5C1034.12 330.32 1039.43 319.107 1042.53 308.86C1045.81 298.613 1047.46 287.497 1047.46 275.51L1046.88 255.5C1046.88 250.473 1048.91 246.317 1052.97 243.03C1057.03 239.55 1062.05 237.81 1068.05 237.81C1071.53 237.81 1074.62 239.067 1077.33 241.58C1080.03 244.093 1082.64 248.443 1085.16 254.63C1086.9 258.883 1088.83 264.393 1090.96 271.16C1093.28 277.927 1096.08 287.013 1099.37 298.42C1102.85 309.633 1107.1 324.327 1112.13 342.5C1118.89 334.96 1124.21 325.68 1128.08 314.66C1131.94 303.447 1133.39 290.397 1132.43 275.51L1131.27 255.5C1131.07 250.473 1133.1 246.317 1137.36 243.03C1141.8 239.55 1147.12 237.81 1153.31 237.81C1164.91 237.81 1171.58 243.32 1173.32 254.34C1173.7 256.853 1173.99 259.753 1174.19 263.04C1174.38 266.327 1174.48 269.613 1174.48 272.9C1174.48 287.013 1172.25 301.223 1167.81 315.53C1163.55 329.643 1157.56 342.693 1149.83 354.68C1141.71 367.247 1134.65 376.043 1128.66 381.07C1122.86 385.903 1116.48 388.32 1109.52 388.32C1104.88 388.32 1100.14 385.71 1095.31 380.49C1090.67 375.077 1086.32 367.73 1082.26 358.45C1078.2 349.17 1074.91 338.73 1072.4 327.13C1070.46 333.123 1067.37 339.697 1063.12 346.85C1059.06 353.81 1054.42 360.48 1049.2 366.86C1043.98 373.24 1038.85 378.46 1033.83 382.52C1028.99 386.387 1024.84 388.32 1021.36 388.32ZM1365.73 386C1362.06 386 1358.87 384.647 1356.16 381.94C1353.65 379.04 1352.39 375.463 1352.39 371.21V241.87C1352.39 221.763 1357.8 206.393 1368.63 195.76C1379.65 185.127 1395.5 179.81 1416.19 179.81C1470.32 179.81 1497.39 214.9 1497.39 285.08C1497.39 319.3 1490.62 344.723 1477.09 361.35C1463.56 377.783 1442.77 386 1414.74 386H1365.73ZM1394.15 351.78H1414.74C1429.05 351.78 1439.39 346.27 1445.77 335.25C1452.34 324.037 1455.63 306.057 1455.63 281.31C1455.63 257.723 1452.63 241 1446.64 231.14C1440.84 221.087 1430.88 216.06 1416.77 216.06C1401.69 216.06 1394.15 221.57 1394.15 232.59V351.78ZM1596.36 388.32C1577.03 388.32 1561.85 385.13 1550.83 378.75C1540.01 372.37 1532.27 363.573 1527.63 352.36C1523.19 341.147 1520.96 328.29 1520.96 313.79C1520.96 287.11 1526.86 267.97 1538.65 256.37C1550.45 244.577 1566.3 238.68 1586.21 238.68C1598.2 238.68 1608.83 240.71 1618.11 244.77C1627.39 248.83 1634.64 254.63 1639.86 262.17C1645.08 269.517 1647.69 278.507 1647.69 289.14C1647.69 320.073 1625.65 335.54 1581.57 335.54H1564.75C1566.3 341.533 1568.81 346.27 1572.29 349.75C1575.97 353.037 1582.35 354.68 1591.43 354.68C1596.46 354.68 1600.52 354.39 1603.61 353.81C1606.71 353.23 1609.61 352.65 1612.31 352.07C1615.21 351.49 1618.5 351.2 1622.17 351.2C1627.39 351.2 1631.55 352.167 1634.64 354.1C1637.74 355.84 1639.28 359.513 1639.28 365.12C1639.28 373.047 1635.8 378.943 1628.84 382.81C1622.08 386.483 1611.25 388.32 1596.36 388.32ZM1562.72 314.08C1564.27 311.953 1566.01 310.6 1567.94 310.02C1569.88 309.247 1572.87 308.86 1576.93 308.86C1588.34 308.86 1596.17 307.797 1600.42 305.67C1604.87 303.35 1607.09 299.29 1607.09 293.49C1607.09 286.143 1605.06 280.537 1601 276.67C1596.94 272.61 1591.82 270.58 1585.63 270.58C1578.48 270.58 1572.87 273.577 1568.81 279.57C1564.75 285.563 1562.72 297.067 1562.72 314.08ZM1724.02 388.32C1720.15 388.32 1716.09 387.547 1711.84 386C1707.78 384.26 1703.91 381.263 1700.24 377.01C1696.56 372.563 1693.37 366.183 1690.67 357.87L1660.22 262.46C1658.86 258.013 1659.06 253.953 1660.8 250.28C1662.54 246.413 1665.34 243.417 1669.21 241.29C1673.07 238.97 1677.33 237.81 1681.97 237.81C1686.22 237.81 1690.09 238.873 1693.57 241C1697.24 243.127 1699.75 246.413 1701.11 250.86L1729.53 346.85C1736.87 334.67 1741.71 322.587 1744.03 310.6C1746.54 298.42 1747.8 286.723 1747.8 275.51C1747.8 272.03 1747.7 268.647 1747.51 265.36C1747.31 261.88 1747.22 258.593 1747.22 255.5C1747.22 249.893 1749.44 245.543 1753.89 242.45C1758.53 239.357 1763.65 237.81 1769.26 237.81C1780.86 237.81 1787.53 243.32 1789.27 254.34C1789.65 256.273 1789.94 258.883 1790.14 262.17C1790.33 265.263 1790.43 268.84 1790.43 272.9C1790.43 279.473 1789.75 287.207 1788.4 296.1C1787.24 304.8 1784.92 314.177 1781.44 324.23C1778.15 334.09 1773.12 344.24 1766.36 354.68C1760.36 363.96 1754.95 371.017 1750.12 375.85C1745.48 380.683 1741.03 383.97 1736.78 385.71C1732.52 387.45 1728.27 388.32 1724.02 388.32Z" fill="#E83C91"/>
<path d="M1207.29 386C1201.88 386 1197.72 384.743 1194.82 382.23C1191.92 379.717 1189.89 376.527 1188.73 372.66C1187.77 368.793 1187.19 364.637 1186.99 360.19C1186.99 355.743 1186.99 351.587 1186.99 347.72C1186.99 330.513 1190.67 316.883 1198.01 306.83C1205.36 296.777 1218.12 289.043 1236.29 283.63C1246.15 280.343 1253.89 277.347 1259.49 274.64C1265.29 271.74 1269.45 267.873 1271.96 263.04C1274.48 258.013 1275.73 250.957 1275.73 241.87C1275.73 235.49 1273.9 229.98 1270.22 225.34C1266.55 220.507 1260.17 218.09 1251.08 218.09C1245.67 218.09 1239.97 218.477 1233.97 219.25C1228.17 220.023 1222.66 220.41 1217.44 220.41C1209.71 220.41 1204.01 218.96 1200.33 216.06C1196.85 213.16 1195.11 208.713 1195.11 202.72C1195.11 194.793 1199.17 189.283 1207.29 186.19C1217.54 181.937 1230.49 179.81 1246.15 179.81C1268.39 179.81 1285.79 185.32 1298.35 196.34C1310.92 207.167 1317.2 222.247 1317.2 241.58C1317.2 255.887 1315.27 267.873 1311.4 277.54C1307.54 287.207 1301.16 295.23 1292.26 301.61C1283.37 307.99 1271.38 313.403 1256.3 317.85C1245.67 320.943 1238.32 324.23 1234.26 327.71C1230.4 330.997 1228.46 335.927 1228.46 342.5V351.49C1232.33 347.623 1237.45 345.69 1243.83 345.69H1295.74C1302.9 345.69 1308.41 347.43 1312.27 350.91C1316.14 354.39 1318.07 359.417 1318.07 365.99C1318.07 379.33 1310.63 386 1295.74 386H1207.29Z" fill="#362B3D"/>
</svg>
